# xmcd
#
# Track frame offsets: 
#        150
#        22014
#        46926
#        74343
#        87588
#        110031
#        122235
#        134074
#        152638
#        175858
#
# Disc length: 2522 seconds
#
# Revision: 0
# Processed by: cddbd v1.5.2PL0 Copyright (c) Steve Scherf et al.
# Submitted via: ExactAudioCopyFreeDBPlugin 1.0
#
DISCID=9109d80a
DTITLE=Marvin Gaye - S.O.U.L.
DYEAR=2011
DGENRE=Soul
TTITLE0=Sexual Healing (12" Version)
TTITLE1=Sanctified Lady
TTITLE2=Rockin' After Midnight
TTITLE3=Walkin' In the Rain
TTITLE4='Til Tomorrow
TTITLE5=I Live for You
TTITLE6=Happy Go Lucky
TTITLE7=Just Like
TTITLE8=Turn On Some Music
TTITLE9=Star-Spangled Banner (Live At The 1983 NBA All-Star Game)
EXTD=
EXTT0=
EXTT1=
EXTT2=
EXTT3=
EXTT4=
EXTT5=
EXTT6=
EXTT7=
EXTT8=
EXTT9=
PLAYORDER=
